<svg width="1283" height="514" viewBox="0 0 1283 514" fill="none" xmlns="http://www.w3.org/2000/svg">
<rect width="1283" height="514" rx="10" fill="black"/>
<path d="M538.2 49.3542V44.5542H528.6V68.5542H538.2V63.7542H547.8V68.5542H543V73.3542H523.8V68.5542H519V44.5542H523.8V39.7542H543V44.5542H547.8V49.3542H538.2ZM576.609 54.1542H581.409V68.5542H576.609V73.3542H557.409V68.5542H552.609V54.1542H557.409V49.3542H576.609V54.1542ZM571.809 68.5542V54.1542H562.209V68.5542H571.809ZM610.219 54.1542H615.019V73.3542H605.419V54.1542H595.819V73.3542H586.219V49.3542H610.219V54.1542ZM634.228 68.5542H639.028V73.3542H629.428V68.5542H624.628V54.1542H619.828V49.3542H624.628V39.7542H634.228V49.3542H639.028V54.1542H634.228V68.5542ZM667.828 54.1542H672.628V58.9542H663.028V54.1542H658.228V58.9542H653.428V73.3542H643.828V49.3542H667.828V54.1542ZM701.438 54.1542H706.238V68.5542H701.438V73.3542H682.238V68.5542H677.438V54.1542H682.238V49.3542H701.438V54.1542ZM696.638 68.5542V54.1542H687.038V68.5542H696.638ZM720.647 68.5542H725.447V73.3542H715.847V68.5542H711.047V39.7542H720.647V68.5542ZM739.866 54.1542V58.9542H754.266V63.7542H759.066V68.5542H754.266V73.3542H730.266V68.5542H749.466V63.7542H735.066V58.9542H730.266V54.1542H735.066V49.3542H759.066V54.1542H739.866Z" fill="#B3D917"/>
<rect x="1042.59" y="204.49" width="103.877" height="56.6322" rx="7" fill="#D9D9D9"/>
<rect x="1042.59" y="273.707" width="103.877" height="57.8907" rx="10" fill="#D9D9D9"/>
<rect x="1163.12" y="273.707" width="103.877" height="57.8907" rx="7" fill="#D9D9D9"/>
<rect x="922.049" y="273.707" width="103.877" height="57.8907" rx="8" fill="#D9D9D9"/>
<rect x="544.777" y="358.843" width="407.201" height="69.6583" rx="8" fill="#D9D9D9"/>
<path d="M724.584 387.328C724.482 386.464 724.067 385.794 723.34 385.317C722.612 384.839 721.72 384.601 720.663 384.601C719.891 384.601 719.215 384.726 718.635 384.976C718.061 385.226 717.612 385.569 717.288 386.007C716.97 386.444 716.811 386.942 716.811 387.498C716.811 387.964 716.922 388.365 717.144 388.7C717.371 389.03 717.661 389.305 718.013 389.527C718.365 389.743 718.734 389.922 719.121 390.064C719.507 390.2 719.862 390.311 720.186 390.396L721.959 390.873C722.413 390.993 722.919 391.157 723.476 391.368C724.038 391.578 724.575 391.865 725.087 392.228C725.604 392.586 726.03 393.047 726.365 393.609C726.7 394.172 726.868 394.862 726.868 395.68C726.868 396.623 726.621 397.476 726.127 398.237C725.638 398.998 724.922 399.603 723.979 400.052C723.041 400.501 721.902 400.726 720.561 400.726C719.311 400.726 718.229 400.524 717.314 400.121C716.405 399.717 715.689 399.155 715.166 398.433C714.649 397.711 714.357 396.873 714.288 395.919H716.47C716.527 396.578 716.749 397.123 717.135 397.555C717.527 397.981 718.021 398.3 718.618 398.51C719.22 398.714 719.868 398.817 720.561 398.817C721.368 398.817 722.092 398.686 722.734 398.425C723.377 398.157 723.885 397.788 724.26 397.317C724.635 396.839 724.823 396.282 724.823 395.646C724.823 395.067 724.661 394.595 724.337 394.231C724.013 393.868 723.587 393.572 723.058 393.345C722.53 393.118 721.959 392.919 721.345 392.748L719.198 392.135C717.834 391.743 716.754 391.183 715.959 390.456C715.163 389.728 714.766 388.777 714.766 387.601C714.766 386.623 715.03 385.771 715.558 385.044C716.092 384.311 716.808 383.743 717.706 383.339C718.609 382.93 719.618 382.726 720.732 382.726C721.857 382.726 722.857 382.927 723.732 383.331C724.607 383.728 725.3 384.274 725.811 384.967C726.328 385.66 726.601 386.447 726.629 387.328H724.584ZM730.07 405.328V387.328H732.014V389.407H732.252C732.4 389.18 732.604 388.89 732.866 388.538C733.133 388.18 733.514 387.862 734.008 387.584C734.508 387.3 735.184 387.157 736.036 387.157C737.139 387.157 738.11 387.433 738.951 387.984C739.792 388.535 740.448 389.317 740.92 390.328C741.391 391.339 741.627 392.532 741.627 393.907C741.627 395.294 741.391 396.496 740.92 397.513C740.448 398.524 739.795 399.308 738.96 399.865C738.124 400.416 737.161 400.692 736.07 400.692C735.229 400.692 734.556 400.552 734.051 400.274C733.545 399.99 733.156 399.669 732.883 399.311C732.61 398.947 732.4 398.646 732.252 398.407H732.082V405.328H730.07ZM732.048 393.873C732.048 394.862 732.193 395.734 732.482 396.49C732.772 397.24 733.195 397.828 733.752 398.254C734.309 398.675 734.991 398.885 735.798 398.885C736.639 398.885 737.34 398.663 737.903 398.22C738.471 397.771 738.897 397.169 739.181 396.413C739.471 395.652 739.616 394.805 739.616 393.873C739.616 392.953 739.474 392.123 739.19 391.385C738.911 390.64 738.488 390.052 737.92 389.621C737.357 389.183 736.65 388.964 735.798 388.964C734.979 388.964 734.292 389.172 733.735 389.586C733.178 389.996 732.758 390.569 732.474 391.308C732.19 392.041 732.048 392.896 732.048 393.873ZM748.548 400.726C747.718 400.726 746.965 400.569 746.289 400.257C745.613 399.939 745.076 399.481 744.678 398.885C744.281 398.282 744.082 397.555 744.082 396.703C744.082 395.953 744.229 395.345 744.525 394.879C744.82 394.407 745.215 394.038 745.71 393.771C746.204 393.504 746.749 393.305 747.346 393.175C747.948 393.038 748.553 392.93 749.161 392.851C749.957 392.748 750.602 392.672 751.096 392.621C751.596 392.564 751.96 392.47 752.187 392.339C752.42 392.209 752.536 391.981 752.536 391.657V391.589C752.536 390.748 752.306 390.095 751.846 389.629C751.391 389.163 750.701 388.93 749.775 388.93C748.815 388.93 748.062 389.14 747.516 389.561C746.971 389.981 746.587 390.43 746.366 390.907L744.457 390.226C744.798 389.43 745.252 388.811 745.82 388.368C746.394 387.919 747.019 387.606 747.695 387.43C748.377 387.248 749.048 387.157 749.707 387.157C750.127 387.157 750.61 387.209 751.156 387.311C751.707 387.407 752.238 387.609 752.749 387.916C753.266 388.223 753.695 388.686 754.036 389.305C754.377 389.925 754.548 390.754 754.548 391.794V400.419H752.536V398.646H752.434C752.298 398.93 752.07 399.234 751.752 399.558C751.434 399.882 751.011 400.157 750.482 400.385C749.954 400.612 749.309 400.726 748.548 400.726ZM748.854 398.919C749.65 398.919 750.32 398.763 750.866 398.45C751.417 398.138 751.832 397.734 752.11 397.24C752.394 396.746 752.536 396.226 752.536 395.68V393.839C752.451 393.942 752.264 394.035 751.974 394.121C751.69 394.2 751.36 394.271 750.985 394.334C750.616 394.39 750.255 394.442 749.903 394.487C749.556 394.527 749.275 394.561 749.059 394.589C748.536 394.657 748.048 394.768 747.593 394.922C747.144 395.069 746.781 395.294 746.502 395.595C746.229 395.89 746.093 396.294 746.093 396.805C746.093 397.504 746.352 398.032 746.869 398.39C747.391 398.743 748.053 398.919 748.854 398.919ZM763.537 400.692C762.31 400.692 761.253 400.402 760.367 399.822C759.48 399.243 758.798 398.444 758.321 397.427C757.844 396.41 757.605 395.248 757.605 393.942C757.605 392.612 757.85 391.439 758.338 390.422C758.832 389.399 759.52 388.601 760.401 388.027C761.287 387.447 762.321 387.157 763.503 387.157C764.423 387.157 765.253 387.328 765.992 387.669C766.73 388.01 767.335 388.487 767.807 389.101C768.278 389.714 768.571 390.43 768.685 391.248H766.673C766.52 390.652 766.179 390.123 765.651 389.663C765.128 389.197 764.423 388.964 763.537 388.964C762.753 388.964 762.065 389.169 761.475 389.578C760.889 389.981 760.432 390.552 760.102 391.291C759.778 392.024 759.617 392.885 759.617 393.873C759.617 394.885 759.776 395.765 760.094 396.515C760.418 397.265 760.872 397.848 761.457 398.263C762.048 398.677 762.742 398.885 763.537 398.885C764.06 398.885 764.534 398.794 764.96 398.612C765.386 398.43 765.747 398.169 766.043 397.828C766.338 397.487 766.548 397.078 766.673 396.601H768.685C768.571 397.373 768.29 398.069 767.841 398.689C767.398 399.302 766.81 399.791 766.077 400.155C765.35 400.513 764.503 400.692 763.537 400.692ZM777.114 400.692C775.852 400.692 774.764 400.413 773.85 399.856C772.94 399.294 772.239 398.51 771.744 397.504C771.256 396.493 771.011 395.317 771.011 393.976C771.011 392.635 771.256 391.453 771.744 390.43C772.239 389.402 772.926 388.601 773.807 388.027C774.693 387.447 775.727 387.157 776.909 387.157C777.591 387.157 778.264 387.271 778.929 387.498C779.594 387.726 780.199 388.095 780.744 388.606C781.29 389.112 781.725 389.782 782.048 390.618C782.372 391.453 782.534 392.481 782.534 393.703V394.555H772.443V392.817H780.489C780.489 392.078 780.341 391.419 780.046 390.839C779.756 390.26 779.341 389.802 778.801 389.467C778.267 389.132 777.636 388.964 776.909 388.964C776.108 388.964 775.415 389.163 774.83 389.561C774.25 389.953 773.804 390.464 773.492 391.095C773.179 391.726 773.023 392.402 773.023 393.123V394.282C773.023 395.271 773.193 396.109 773.534 396.797C773.881 397.478 774.361 397.998 774.975 398.356C775.588 398.709 776.301 398.885 777.114 398.885C777.642 398.885 778.119 398.811 778.546 398.663C778.977 398.51 779.35 398.282 779.662 397.981C779.975 397.675 780.216 397.294 780.386 396.839L782.33 397.385C782.125 398.044 781.781 398.623 781.298 399.123C780.815 399.618 780.219 400.004 779.509 400.282C778.798 400.555 778 400.692 777.114 400.692Z" fill="black"/>
<path d="M880.143 191.75L883.275 191.094L883.773 194.255L880.641 194.911L881.14 198.072L871.744 200.04L873.738 212.684L867.474 213.996L863.984 191.869L879.644 188.589L880.143 191.75ZM877.509 195.567L877.011 192.406L870.747 193.718L871.245 196.879L877.509 195.567ZM895.169 204.929L898.301 204.273L898.8 207.434L892.536 208.746L892.037 205.585L888.905 206.241L885.914 187.275L892.178 185.963L895.169 204.929ZM915.61 190.851L918.742 190.195L920.736 202.838L905.076 206.119L904.578 202.958L901.446 203.614L900.947 200.453L904.079 199.797L903.581 196.636L912.977 194.668L912.478 191.507L903.082 193.475L902.584 190.314L915.112 187.69L915.61 190.851ZM913.974 200.99L913.475 197.829L907.211 199.141L907.71 202.302L913.974 200.99ZM940.174 182.44L942.667 198.244L939.535 198.9L940.033 202.061L924.373 205.342L923.875 202.181L936.403 199.557L935.904 196.396L926.508 198.364L926.009 195.203L922.877 195.859L921.382 186.376L927.646 185.064L929.141 194.547L935.405 193.235L933.91 183.752L940.174 182.44ZM959.471 181.663L962.603 181.007L963.6 187.328L951.072 189.953L951.57 193.114L964.098 190.489L964.597 193.65L948.937 196.931L948.438 193.77L945.306 194.426L943.811 184.943L946.943 184.287L946.444 181.126L958.972 178.502L959.471 181.663ZM956.837 185.48L956.339 182.319L950.075 183.631L950.573 186.792L956.837 185.48ZM981.401 177.069L984.533 176.413L985.031 179.574L978.767 180.886L978.269 177.725L975.137 178.381L975.635 181.542L972.503 182.198L973.999 191.681L967.735 192.993L965.242 177.188L980.902 173.908L981.401 177.069ZM1014.87 163.526L1018.01 162.87L1019 169.192L1015.87 169.848L1016.37 173.009L1010.11 174.321L1010.6 177.482L1007.47 178.138L1007.97 181.299L1014.24 179.987L1013.74 176.826L1020 175.513L1021 181.835L1002.21 185.772L1001.21 179.45L1004.34 178.794L1003.84 175.633L1006.97 174.977L1006.48 171.816L1012.74 170.504L1011.74 164.182L1005.48 165.494L1005.98 168.655L999.713 169.967L999.214 166.806L1002.35 166.15L1001.85 162.989L1014.38 160.365L1014.87 163.526Z" fill="#B3D917"/>
<path d="M1094.25 223.918C1093.86 223.528 1093.23 223.528 1092.84 223.918L1086.47 230.282C1086.08 230.673 1086.08 231.306 1086.47 231.696C1086.86 232.087 1087.5 232.087 1087.89 231.696L1093.54 226.04L1099.2 231.696C1099.59 232.087 1100.23 232.087 1100.62 231.696C1101.01 231.306 1101.01 230.673 1100.62 230.282L1094.25 223.918ZM1094.54 240.986V224.625H1092.54V240.986H1094.54Z" fill="black"/>
<path d="M1092.81 313.077C1093.19 313.483 1093.82 313.509 1094.22 313.134L1100.78 307.027C1101.18 306.653 1101.2 306.02 1100.82 305.614C1100.44 305.208 1099.81 305.183 1099.41 305.557L1093.58 310.985L1088.1 305.105C1087.72 304.699 1087.09 304.674 1086.69 305.048C1086.29 305.423 1086.27 306.056 1086.65 306.462L1092.81 313.077ZM1093.03 296.115L1092.54 312.359L1094.54 312.439L1095.03 296.195L1093.03 296.115Z" fill="black"/>
<path d="M1222.14 302.352C1222.52 301.946 1222.5 301.313 1222.1 300.938L1215.54 294.832C1215.14 294.457 1214.51 294.482 1214.13 294.888C1213.75 295.294 1213.77 295.927 1214.17 296.302L1220 301.73L1214.52 307.61C1214.14 308.016 1214.16 308.649 1214.56 309.024C1214.96 309.399 1215.6 309.373 1215.97 308.967L1222.14 302.352ZM1207.27 303.24L1221.44 302.673L1221.38 300.674L1207.21 301.241L1207.27 303.24Z" fill="black"/>
<path d="M967.401 303.204C967.01 303.594 967.01 304.227 967.401 304.618L973.765 310.982C974.155 311.372 974.789 311.372 975.179 310.982C975.57 310.591 975.57 309.958 975.179 309.568L969.522 303.911L975.179 298.254C975.57 297.863 975.57 297.23 975.179 296.84C974.789 296.449 974.155 296.449 973.765 296.84L967.401 303.204ZM982.808 302.911H968.108V304.911H982.808V302.911Z" fill="black"/>
<path d="M726 289.202H728V299.202H726V301.202H716V287.202H726V289.202ZM724 299.202V289.202H720V299.202H724ZM740.004 293.202H742.004V295.202H738.004V293.202H736.004V295.202H734.004V301.202H730.004V291.202H740.004V293.202ZM754.008 293.202H756.008V299.202H754.008V301.202H746.008V299.202H744.008V293.202H746.008V291.202H754.008V293.202ZM752.008 299.202V293.202H748.008V299.202H752.008ZM768.012 293.202H770.012V297.202H768.012V299.202H762.012V303.202H758.012V291.202H768.012V293.202ZM766.012 297.202V293.202H764.012V295.202H762.012V297.202H766.012ZM790.023 293.202H792.023V299.202H790.023V301.202H780.023V287.202H784.023V291.202H790.023V293.202ZM788.023 299.202V293.202H786.023V295.202H784.023V299.202H788.023ZM804.027 293.202H806.027V299.202H804.027V301.202H796.027V299.202H794.027V293.202H796.027V291.202H804.027V293.202ZM802.027 299.202V293.202H798.027V299.202H802.027ZM818.031 293.202H820.031V301.202H816.031V297.202H812.031V301.202H808.031V291.202H818.031V293.202ZM832.035 293.202H834.035V299.202H832.035V301.202H822.035V287.202H826.035V291.202H832.035V293.202ZM830.035 299.202V293.202H828.035V295.202H826.035V299.202H830.035Z" fill="#B3D917"/>
<path d="M766 308.079C771.035 308.079 777.325 306.674 781.999 309.339C787.064 312.227 790.228 316.764 794.538 320.626C796.479 322.365 799.146 325.606 800.496 327.914C803.625 333.267 806.747 338.649 809.912 343.969C812.002 347.481 814.14 351.2 816.062 354.927C816.543 355.86 817.433 356.436 818.08 357.174C819.415 358.696 814.716 357.81 813.972 357.612C811.611 356.984 809.303 356.407 806.886 356.407C805.2 356.407 805.2 355.914 806.886 355.914C809.296 355.914 811.688 356.268 813.996 356.407C814.441 356.433 818.465 356.838 818.656 356.571C819.476 355.429 818.125 351.738 817.984 350.489C817.815 348.989 817.888 347.451 817.888 345.941C817.888 344.593 818.918 340.227 817.888 339.64" stroke="white" stroke-width="2" stroke-linecap="round"/>
<path d="M1140 398.991V412.991H1136V404.991H1132V412.991H1128V398.991H1132V400.991H1136V398.991H1140ZM1152 404.991H1154V410.991H1152V412.991H1144V410.991H1142V404.991H1144V402.991H1152V404.991ZM1150 410.991V404.991H1146V410.991H1150ZM1168.01 402.991V408.991H1166.01V410.991H1164.01V412.991H1160.01V410.991H1158.01V408.991H1156.01V402.991H1160.01V408.991H1164.01V402.991H1168.01ZM1180.01 404.991H1182.01V408.991H1174.01V410.991H1182.01V412.991H1172.01V410.991H1170.01V404.991H1172.01V402.991H1180.01V404.991ZM1178.01 406.991V404.991H1174.01V406.991H1178.01Z" fill="#B3D917"/>
<path d="M1158.22 385.713C1158.22 382.35 1158.22 378.987 1158.22 375.625C1158.22 371.815 1156.68 365.125 1155.11 361.73C1153.62 358.525 1152.56 354.82 1150.24 352.186C1147.82 349.44 1145.62 345.801 1142.91 343.403C1142.1 342.688 1141.17 342.116 1140.44 341.283C1139.35 340.053 1139.67 342.101 1139.67 343.023C1139.67 344.763 1139.67 346.503 1139.67 348.243C1139.67 349.91 1139.67 349.91 1139.67 348.243C1139.67 344.921 1139.52 341.554 1139.67 338.237C1139.72 337.238 1142.64 338.712 1143.22 338.727C1145.87 338.795 1148.76 337.803 1150.03 340.684" stroke="white" stroke-width="2" stroke-linecap="round"/>
<rect x="379" y="211.906" width="103" height="56.4709" rx="7" fill="#D9D9D9"/>
<path d="M426.403 244.736L422.426 230.191H424.216L427.256 242.037H427.398L430.494 230.191H432.483L435.58 242.037H435.722L438.761 230.191H440.551L436.574 244.736H434.756L431.545 233.145H431.432L428.222 244.736H426.403Z" fill="black"/>
<rect x="379" y="281.054" width="103" height="56.4708" rx="10" fill="#D9D9D9"/>
<path d="M433.716 302.975C433.631 302.255 433.285 301.697 432.679 301.299C432.073 300.901 431.33 300.702 430.449 300.702C429.805 300.702 429.241 300.807 428.759 301.015C428.28 301.223 427.906 301.51 427.636 301.874C427.371 302.239 427.239 302.653 427.239 303.117C427.239 303.505 427.331 303.839 427.516 304.119C427.705 304.393 427.946 304.623 428.24 304.807C428.534 304.987 428.841 305.137 429.163 305.255C429.485 305.369 429.781 305.461 430.051 305.532L431.528 305.93C431.907 306.029 432.329 306.166 432.793 306.342C433.261 306.517 433.709 306.756 434.135 307.059C434.566 307.357 434.921 307.741 435.2 308.209C435.48 308.678 435.619 309.253 435.619 309.935C435.619 310.721 435.413 311.432 435.001 312.066C434.594 312.7 433.998 313.205 433.212 313.579C432.43 313.953 431.481 314.14 430.364 314.14C429.322 314.14 428.42 313.972 427.658 313.636C426.9 313.299 426.304 312.831 425.868 312.229C425.437 311.628 425.193 310.93 425.136 310.134H426.955C427.002 310.683 427.187 311.138 427.509 311.498C427.835 311.853 428.247 312.118 428.744 312.293C429.246 312.464 429.786 312.549 430.364 312.549C431.036 312.549 431.64 312.44 432.175 312.222C432.71 312 433.134 311.692 433.446 311.299C433.759 310.901 433.915 310.437 433.915 309.907C433.915 309.424 433.78 309.031 433.51 308.728C433.24 308.425 432.885 308.179 432.445 307.989C432.004 307.8 431.528 307.634 431.017 307.492L429.227 306.981C428.091 306.654 427.191 306.188 426.528 305.582C425.866 304.976 425.534 304.182 425.534 303.202C425.534 302.388 425.754 301.678 426.195 301.072C426.64 300.461 427.236 299.987 427.984 299.651C428.737 299.31 429.578 299.14 430.506 299.14C431.443 299.14 432.277 299.308 433.006 299.644C433.735 299.976 434.313 300.43 434.739 301.008C435.17 301.585 435.397 302.241 435.42 302.975H433.716Z" fill="black"/>
<rect x="498" y="281.054" width="103" height="56.4708" rx="7" fill="#D9D9D9"/>
<path d="M555.25 315.037H550.761V300.491H555.449C556.86 300.491 558.067 300.782 559.071 301.365C560.075 301.942 560.844 302.773 561.379 303.858C561.914 304.937 562.182 306.23 562.182 307.735C562.182 309.251 561.912 310.555 561.372 311.649C560.832 312.738 560.046 313.576 559.014 314.163C557.982 314.745 556.727 315.037 555.25 315.037ZM552.523 313.474H555.136C556.339 313.474 557.336 313.242 558.126 312.778C558.917 312.314 559.507 311.654 559.895 310.797C560.283 309.94 560.477 308.919 560.477 307.735C560.477 306.561 560.286 305.55 559.902 304.703C559.518 303.851 558.946 303.197 558.183 302.743C557.421 302.283 556.472 302.054 555.335 302.054H552.523V313.474Z" fill="black"/>
<rect x="260" y="281.054" width="103" height="56.4708" rx="8" fill="#D9D9D9"/>
<path d="M308.358 315.037H306.511L311.852 300.491H313.67L319.011 315.037H317.165L312.818 302.792H312.705L308.358 315.037ZM309.04 309.355H316.483V310.917H309.04V309.355Z" fill="black"/>
<rect x="88" y="353.66" width="158" height="74.9103" rx="10" fill="#D9D9D9"/>
<path d="M154.716 384.8C154.631 384.08 154.285 383.522 153.679 383.124C153.073 382.726 152.33 382.527 151.449 382.527C150.805 382.527 150.241 382.632 149.759 382.84C149.28 383.048 148.906 383.335 148.636 383.699C148.371 384.064 148.239 384.478 148.239 384.942C148.239 385.33 148.331 385.664 148.516 385.944C148.705 386.218 148.946 386.448 149.24 386.633C149.534 386.812 149.841 386.962 150.163 387.08C150.485 387.194 150.781 387.286 151.051 387.357L152.528 387.755C152.907 387.854 153.329 387.991 153.793 388.167C154.261 388.342 154.709 388.581 155.135 388.884C155.566 389.182 155.921 389.566 156.2 390.035C156.48 390.503 156.619 391.079 156.619 391.76C156.619 392.546 156.413 393.257 156.001 393.891C155.594 394.526 154.998 395.03 154.212 395.404C153.43 395.778 152.481 395.965 151.364 395.965C150.322 395.965 149.42 395.797 148.658 395.461C147.9 395.124 147.304 394.656 146.868 394.054C146.437 393.453 146.193 392.755 146.136 391.959H147.955C148.002 392.508 148.187 392.963 148.509 393.323C148.835 393.678 149.247 393.943 149.744 394.118C150.246 394.289 150.786 394.374 151.364 394.374C152.036 394.374 152.64 394.265 153.175 394.047C153.71 393.825 154.134 393.517 154.446 393.124C154.759 392.726 154.915 392.262 154.915 391.732C154.915 391.249 154.78 390.856 154.51 390.553C154.24 390.25 153.885 390.004 153.445 389.814C153.004 389.625 152.528 389.459 152.017 389.317L150.227 388.806C149.091 388.479 148.191 388.013 147.528 387.407C146.866 386.801 146.534 386.008 146.534 385.027C146.534 384.213 146.754 383.503 147.195 382.897C147.64 382.286 148.236 381.812 148.984 381.476C149.737 381.135 150.578 380.965 151.506 380.965C152.443 380.965 153.277 381.133 154.006 381.469C154.735 381.801 155.313 382.255 155.739 382.833C156.17 383.41 156.397 384.066 156.42 384.8H154.716ZM160.964 389.147V395.709H159.288V381.164H160.964V386.505H161.106C161.362 385.941 161.745 385.494 162.257 385.162C162.773 384.826 163.459 384.658 164.316 384.658C165.06 384.658 165.711 384.807 166.27 385.106C166.828 385.399 167.261 385.851 167.569 386.462C167.882 387.068 168.038 387.84 168.038 388.777V395.709H166.362V388.891C166.362 388.025 166.137 387.355 165.687 386.881C165.242 386.403 164.624 386.164 163.833 386.164C163.284 386.164 162.792 386.28 162.356 386.512C161.925 386.744 161.584 387.082 161.333 387.527C161.087 387.972 160.964 388.512 160.964 389.147ZM171.104 395.709V384.8H172.781V395.709H171.104ZM171.957 382.982C171.63 382.982 171.348 382.871 171.112 382.648C170.879 382.426 170.763 382.158 170.763 381.846C170.763 381.533 170.879 381.266 171.112 381.043C171.348 380.82 171.63 380.709 171.957 380.709C172.283 380.709 172.563 380.82 172.795 381.043C173.031 381.266 173.15 381.533 173.15 381.846C173.15 382.158 173.031 382.426 172.795 382.648C172.563 382.871 172.283 382.982 171.957 382.982ZM180.708 384.8V386.221H174.828V384.8H180.708ZM176.589 395.709V383.294C176.589 382.669 176.736 382.149 177.029 381.732C177.323 381.315 177.704 381.003 178.173 380.794C178.642 380.586 179.136 380.482 179.657 380.482C180.069 380.482 180.405 380.515 180.666 380.581C180.926 380.648 181.12 380.709 181.248 380.766L180.765 382.215C180.68 382.187 180.562 382.151 180.41 382.108C180.263 382.066 180.069 382.044 179.828 382.044C179.274 382.044 178.874 382.184 178.627 382.463C178.386 382.743 178.265 383.152 178.265 383.692V395.709H176.589ZM187.802 384.8V386.221H182.148V384.8H187.802ZM183.796 382.187H185.472V392.584C185.472 393.058 185.541 393.413 185.678 393.65C185.82 393.882 186 394.038 186.218 394.118C186.441 394.194 186.675 394.232 186.921 394.232C187.106 394.232 187.257 394.222 187.376 394.204C187.494 394.18 187.589 394.161 187.66 394.147L188.001 395.652C187.887 395.695 187.728 395.738 187.525 395.78C187.321 395.828 187.063 395.851 186.751 395.851C186.277 395.851 185.813 395.749 185.359 395.546C184.909 395.342 184.535 395.032 184.237 394.615C183.943 394.199 183.796 393.673 183.796 393.039V382.187Z" fill="black"/>
<path d="M190.097 186.142L193.23 185.493L193.724 188.654L190.591 189.304L191.084 192.466L181.684 194.414L183.658 207.061L177.391 208.361L173.937 186.229L189.603 182.98L190.097 186.142ZM187.457 189.954L186.964 186.792L180.697 188.091L181.19 191.253L187.457 189.954ZM205.104 199.351L208.238 198.701L208.731 201.863L202.464 203.162L201.971 200.001L198.837 200.65L195.876 181.68L202.143 180.381L205.104 199.351ZM225.569 185.316L228.703 184.666L230.677 197.313L215.01 200.561L214.517 197.4L211.383 198.049L210.89 194.888L214.023 194.238L213.53 191.076L222.93 189.127L222.436 185.966L213.036 187.914L212.542 184.753L225.076 182.154L225.569 185.316ZM223.917 195.451L223.423 192.289L217.156 193.588L217.65 196.75L223.917 195.451ZM250.149 176.956L252.617 192.765L249.483 193.414L249.977 196.576L234.31 199.824L233.816 196.662L246.35 194.064L245.856 190.902L236.456 192.851L235.963 189.689L232.829 190.339L231.349 180.854L237.616 179.555L239.096 189.04L245.363 187.741L243.882 178.255L250.149 176.956ZM269.449 176.219L272.582 175.569L273.569 181.893L261.036 184.491L261.529 187.653L274.063 185.054L274.556 188.216L258.89 191.464L258.396 188.302L255.263 188.952L253.782 179.467L256.915 178.817L256.422 175.656L268.955 173.057L269.449 176.219ZM266.809 180.03L266.316 176.869L260.049 178.168L260.542 181.329L266.809 180.03ZM291.389 171.67L294.522 171.021L295.015 174.182L288.749 175.482L288.255 172.32L285.122 172.97L285.615 176.131L282.482 176.781L283.963 186.266L277.696 187.565L275.228 171.757L290.895 168.509L291.389 171.67ZM330.488 173.356L330.981 176.518L312.181 180.416L311.688 177.254L317.954 175.955L315.98 163.308L312.847 163.957L312.353 160.796L315.487 160.146L314.993 156.984L321.26 155.685L324.221 174.655L330.488 173.356Z" fill="#B3D917"/>
<path d="M51 279.982H53V289.982H51V291.982H41V277.982H51V279.982ZM49 289.982V279.982H45V289.982H49ZM65.0039 283.982H67.0039V285.982H63.0039V283.982H61.0039V285.982H59.0039V291.982H55.0039V281.982H65.0039V283.982ZM79.0078 283.982H81.0078V289.982H79.0078V291.982H71.0078V289.982H69.0078V283.982H71.0078V281.982H79.0078V283.982ZM77.0078 289.982V283.982H73.0078V289.982H77.0078ZM93.0117 283.982H95.0117V287.982H93.0117V289.982H87.0117V293.982H83.0117V281.982H93.0117V283.982ZM91.0117 287.982V283.982H89.0117V285.982H87.0117V287.982H91.0117ZM115.023 283.982H117.023V289.982H115.023V291.982H105.023V277.982H109.023V281.982H115.023V283.982ZM113.023 289.982V283.982H111.023V285.982H109.023V289.982H113.023ZM129.027 283.982H131.027V289.982H129.027V291.982H121.027V289.982H119.027V283.982H121.027V281.982H129.027V283.982ZM127.027 289.982V283.982H123.027V289.982H127.027ZM143.031 283.982H145.031V291.982H141.031V287.982H137.031V291.982H133.031V281.982H143.031V283.982ZM157.035 283.982H159.035V289.982H157.035V291.982H147.035V277.982H151.035V281.982H157.035V283.982ZM155.035 289.982V283.982H153.035V285.982H151.035V289.982H155.035Z" fill="#B3D917"/>
<path d="M139 296.184C141.913 296.184 146.738 299.236 147.921 302.304C148.438 303.644 150.845 306.292 151.745 307.444C153.48 309.667 154.674 313.112 155.474 315.876C156.21 318.424 156.377 320.819 156.866 323.356C157.1 324.57 157.261 329.373 157.904 329.966C158.242 330.277 158.967 334.918 158.967 335.596C158.967 337.694 159.834 339.484 160.217 341.471C160.627 343.596 155.9 340.002 155.049 339.649C154.228 339.308 149.079 337.799 151.745 337.799C153.61 337.799 155.081 339.01 156.63 340.002C157.623 340.638 159.281 342.641 160.43 342.641C160.583 342.641 163.753 338.407 164.489 337.908C164.938 337.604 167.974 334.544 166.094 336.711C165.114 337.84 164.974 338.905 163.64 339.866C163.623 339.878 161.515 343.925 161.515 342.695" stroke="white" stroke-width="2" stroke-linecap="round"/>
<path d="M452 398.844V412.844H448V404.844H444V412.844H440V398.844H444V400.844H448V398.844H452ZM464.004 404.844H466.004V410.844H464.004V412.844H456.004V410.844H454.004V404.844H456.004V402.844H464.004V404.844ZM462.004 410.844V404.844H458.004V410.844H462.004ZM480.008 402.844V408.844H478.008V410.844H476.008V412.844H472.008V410.844H470.008V408.844H468.008V402.844H472.008V408.844H476.008V402.844H480.008ZM492.012 404.844H494.012V408.844H486.012V410.844H494.012V412.844H484.012V410.844H482.012V404.844H484.012V402.844H492.012V404.844ZM490.012 406.844V404.844H486.012V406.844H490.012Z" fill="#B3D917"/>
<path d="M464.821 398.055C464.821 386.143 459.238 372.749 454.844 362.058C453.807 359.537 452.666 354.41 450.614 353.059C449.474 352.308 449.204 350.435 449.204 352.496C449.204 354.357 448.172 355.936 447.469 357.558C445.852 361.284 444.243 364.617 443.347 368.745C441.884 375.489 443.484 365.744 444.323 363.433C445.922 359.032 446.664 354.184 451.156 354.184C453.281 354.184 458.049 354.323 458.965 356.433" stroke="white" stroke-width="2" stroke-linecap="round"/>
</svg>
